<?xml version="1.0" encoding="utf-8"?>
<!-- Generator: Adobe Illustrator 17.1.0, SVG Export Plug-In . SVG Version: 6.00 Build 0)  -->
<!DOCTYPE svg PUBLIC "-//W3C//DTD SVG 1.1//EN" "http://www.w3.org/Graphics/SVG/1.1/DTD/svg11.dtd">
<svg version="1.1" id="Layer_1" xmlns="http://www.w3.org/2000/svg" xmlns:xlink="http://www.w3.org/1999/xlink" x="0px" y="0px"
	 viewBox="0 0 512 512" enable-background="new 0 0 512 512" xml:space="preserve">
<g>
	<g>
		<linearGradient id="SVGID_1_" gradientUnits="userSpaceOnUse" x1="253.6648" y1="463.0948" x2="260.8874" y2="26.5208">
			<stop  offset="2.383810e-003" style="stop-color:#5700F9"/>
			<stop  offset="0.2836" style="stop-color:#6D50FB"/>
			<stop  offset="0.5349" style="stop-color:#7F8FFD"/>
			<stop  offset="0.7454" style="stop-color:#8CBDFE"/>
			<stop  offset="0.9068" style="stop-color:#94D9FF"/>
			<stop  offset="1" style="stop-color:#97E4FF"/>
		</linearGradient>
		<path fill="url(#SVGID_1_)" d="M445.2,322c0,104.5-84.7,189.1-189.2,189.1c-104.5,0-189.1-84.7-189.1-189.1
			c0-57.4,25.6-108.9,66-143.6c2.4-2,4.8-4,7.2-5.8C206.8,119,256.7,108.8,256.7,0c0,0,0,0.1,0,0.2c9.9,37,28.2,86.3,19.8,133.7
			c-1.2,6.9-3,13.9-5.5,20.7c-7.6,20.9-21.6,41-45.1,59.1c-31.3,24.2-39.5,57.2-39.2,78.2c0.1,5.4,0.6,10.5,1.5,15.3
			c7.2,25.4,25,25.7,44.2,10.2c16.2-13.1,33.3,4.6,11.1,28.4c-8.4,9.1,2.7,18.7,14.6,15.9c13.6-4.1,24.2-15.9,26.1-35.9
			c2.1-22.3,9.8-30,18-30.9c11.9-1.2,16.9,7.1,21.7,30.9c5.9,29.4,62.5,25.7,57.7-40.5c-0.9-11.8-2.4-29.7-14.7-45.2
			c-34.5-43.5-20.6-71.4,8.2-59.1c5.6,2.4,12.8,6.1,20.5,13.3C428.7,225.7,445.2,272.8,445.2,322z M295.1,278.3
			c10.1,0,18.2-8.2,18.2-18.2c0-10.1-8.2-18.2-18.2-18.2c-10.1,0-18.2,8.2-18.2,18.2C276.9,270.1,285,278.3,295.1,278.3z"/>
		<g opacity="0.31">
			<defs>
				<path id="SVGID_2_" opacity="0.31" d="M445.2,322c0,104.5-84.7,189.1-189.2,189.1c-104.5,0-189.1-84.7-189.1-189.1
					c0-57.4,25.6-108.9,66-143.6c2.4-2,4.8-4,7.2-5.8C206.8,119,256.7,108.8,256.7,0c0,0,0,0.1,0,0.2c9.9,37,28.2,86.3,19.8,133.7
					c-1.2,6.9-3,13.9-5.5,20.7c-7.6,20.9-21.6,41-45.1,59.1c-31.3,24.2-39.5,57.2-39.2,78.2c0.1,5.4,0.6,10.5,1.5,15.3
					c7.2,25.4,25,25.7,44.2,10.2c16.2-13.1,33.3,4.6,11.1,28.4c-8.4,9.1,2.7,18.7,14.6,15.9c13.6-4.1,24.2-15.9,26.1-35.9
					c2.1-22.3,9.8-30,18-30.9c11.9-1.2,16.9,7.1,21.7,30.9c5.9,29.4,62.5,25.7,57.7-40.5c-0.9-11.8-2.4-29.7-14.7-45.2
					c-34.5-43.5-20.6-71.4,8.2-59.1c5.6,2.4,12.8,6.1,20.5,13.3C428.7,225.7,445.2,272.8,445.2,322z M295.1,278.3
					c10.1,0,18.2-8.2,18.2-18.2c0-10.1-8.2-18.2-18.2-18.2c-10.1,0-18.2,8.2-18.2,18.2C276.9,270.1,285,278.3,295.1,278.3z"/>
			</defs>
			<clipPath id="SVGID_3_">
				<use xlink:href="#SVGID_2_"  overflow="visible"/>
			</clipPath>
			<linearGradient id="SVGID_4_" gradientUnits="userSpaceOnUse" x1="251.2583" y1="449.8815" x2="275.1871" y2="62.3894">
				<stop  offset="2.383810e-003" style="stop-color:#5700F9"/>
				<stop  offset="0.2836" style="stop-color:#6D50FB;stop-opacity:0.7181"/>
				<stop  offset="0.5349" style="stop-color:#7F8FFD;stop-opacity:0.4662"/>
				<stop  offset="0.7454" style="stop-color:#8CBDFE;stop-opacity:0.2552"/>
				<stop  offset="0.9068" style="stop-color:#94D9FF;stop-opacity:9.339184e-002"/>
				<stop  offset="1" style="stop-color:#97E4FF;stop-opacity:0"/>
			</linearGradient>
			<path clip-path="url(#SVGID_3_)" fill="url(#SVGID_4_)" d="M275.2,518.9c-31.1,2.2-62.8-2.4-91.6-13.3
				c-37.4-14.2-70-38.5-94.2-70.2c-24.7-32.5-39.3-71.1-42.2-111.9c-0.2-2.3-0.3-4.5-0.4-6.8c-1-25.5,2.6-50.7,10.7-74.8
				c7.7-22.9,19-43.9,33.7-62.6c16.9-21.5,37.9-38.8,56.5-54c2.5-2,5-4.1,7.5-6.1c18.9-15.4,38.4-31.3,50.6-51.1
				c6.5-10.6,11.1-22.9,13.7-36.5c1.5-7.7,2.4-15.8,2.7-24.9c0.2-4.6,0.2-9.6,0.1-14.6c0-1.7,0-3.6,0.1-5.3c0.1-1.8,0.2-4.7,0-6
				c-0.1-0.2-0.3-1-0.3-1l-0.1-0.5l13.4-3.3c0,0,36.4,75.2,3.8,145.6c-9.3,20.2-20.9,37.2-35.4,52.1c-2.7,2.7-5.4,5.4-8.1,8.1
				c-12.9,12.7-25.1,24.6-36.6,47.5c-33.8,67.3-10.8,113.9,0.6,130.8c16.8,24.8,43,39,68.4,37.2c0,0,0,0,0,0
				c48.4-3.7,78.7-49.4,89-24.1c7.9,19.5-25.7,43.8-2.2,42.7c8-0.4,18.3-7.2,28-14.8c22.9-17.8,32.4-41.4,41.7-68.2
				c1.7-5,17.6-48.8,41.5-50.6c3.6-0.3,7.1,0.4,10.3,1.9c3.5-67.9-54.3-143.6-85.2-129.6c0,0-2.9-22.7,54.8-0.4
				c49.4,19.1,62.3,79.3,66.5,138.7c3.6,49.8-11.7,101.3-41.8,141.1c-28.8,38.2-70.1,65.9-116.1,78.1
				C302,515.7,288.7,517.9,275.2,518.9C275.2,518.9,275.2,518.9,275.2,518.9z"/>
		</g>
		<linearGradient id="SVGID_5_" gradientUnits="userSpaceOnUse" x1="277.8844" y1="52.3748" x2="238.5915" y2="536.3963">
			<stop  offset="0" style="stop-color:#EA58C9;stop-opacity:0.8"/>
			<stop  offset="1" style="stop-color:#EA58C9;stop-opacity:0"/>
		</linearGradient>
		<path fill="url(#SVGID_5_)" d="M445.2,322c0,104.5-84.7,189.1-189.2,189.1c-104.5,0-189.1-84.7-189.1-189.1
			c0-57.4,25.6-108.9,66-143.6c2.4-2,4.8-4,7.2-5.8C206.8,119,256.7,108.8,256.7,0c0,0,0,0.1,0,0.2c9.9,37,28.2,86.3,19.8,133.7
			c-1.2,6.9-3,13.9-5.5,20.7c-7.6,20.9-21.6,41-45.1,59.1c-31.3,24.2-39.5,57.2-39.2,78.2c0.1,5.4,0.6,10.5,1.5,15.3
			c7.2,25.4,25,25.7,44.2,10.2c16.2-13.1,33.3,4.6,11.1,28.4c-8.4,9.1,2.7,18.7,14.6,15.9c13.6-4.1,24.2-15.9,26.1-35.9
			c2.1-22.3,9.8-30,18-30.9c11.9-1.2,16.9,7.1,21.7,30.9c5.9,29.4,62.5,25.7,57.7-40.5c-0.9-11.8-2.4-29.7-14.7-45.2
			c-34.5-43.5-20.6-71.4,8.2-59.1c5.6,2.4,12.8,6.1,20.5,13.3C428.7,225.7,445.2,272.8,445.2,322z M295.1,278.3
			c10.1,0,18.2-8.2,18.2-18.2c0-10.1-8.2-18.2-18.2-18.2c-10.1,0-18.2,8.2-18.2,18.2C276.9,270.1,285,278.3,295.1,278.3z"/>
	</g>
	<linearGradient id="SVGID_6_" gradientUnits="userSpaceOnUse" x1="488.8266" y1="316.4679" x2="401.8384" y2="241.6817">
		<stop  offset="0" style="stop-color:#2CA3FF"/>
		<stop  offset="1" style="stop-color:#2CA3FF;stop-opacity:0"/>
	</linearGradient>
	<path fill="url(#SVGID_6_)" d="M445.1,317.4c-0.8-39.8-12.5-78-35.2-107.2C432,237.9,444.3,272.5,445.1,317.4z"/>
	<g>
		<path fill="#83FFFF" d="M256.1,512c-27.8,0-55.7-6.2-80.5-17.8c-32.4-15.1-59.8-39-79.3-69.1C76.4,394.4,65.9,358.7,65.9,322
			c0-2,0-4.1,0.1-6.1c0.7-23.4,5.5-45.7,14.2-66.4c23.6-56.1,61.5-81.6,89.1-100.2c18.5-12.5,67.7-45.6,80.1-92.7
			c2-7.5,3.4-15.6,4.7-25.7c0.9-7.2,2.4-25.8,2.5-30.7c0,0,5.6,18.6,4.8,43.5c-0.7,22.2-5.5,56-24.5,90.7
			c-9.5,17.4-20.8,31.8-34.4,44c-2.7,2.4-5.4,4.7-8.1,7c-13.4,11.5-27.3,23.4-41,46.6c-28.5,48.3-31.5,99.2-8.4,139.7
			c16.7,29.3,45.3,47.4,74.5,47.4c0,0,0,0,0,0c15.3,0,29.8-4.7,43.3-14.1c8-5.5,16.8-8.9,23.1-8.9c4,0,6.9,1.4,8.4,3.9
			c2.6,4.5,0.7,12.2-5.5,23c-4.4,7.5-5.6,13.2-3.7,16.7c1.9,3.3,6.6,4,10.2,4c11,0,27.5-6.2,41.1-15.3
			c28.3-19.1,40.4-47.8,49.3-68.8c6.7-15.7,20.9-37.4,30.4-37.4c1.6,0,3,0.6,4.2,1.8c3.1,3.1,4.5,10.1,4.3,21.2
			c-0.3,18.8,1.8,19.5,1.9,19.5c1.1,0,4.3-5.4,8.5-20l0.2-0.7l0-0.2c3-12.2,4.5-24.9,4.3-37.7c-0.9-56.2-44-111.9-44-111.9
			c31.9,27.9,50.4,74,50.4,127.6c0,45-16.8,90.2-46.1,124c-28.1,32.4-66.5,54.7-108.2,62.7C280.1,510.9,268.1,512,256.1,512
			C256.1,512,256.1,512,256.1,512z"/>
		
			<radialGradient id="SVGID_7_" cx="208.8282" cy="165.8491" r="205.1548" gradientTransform="matrix(1.8718 0 0 1.8718 -197.0166 -165.2461)" gradientUnits="userSpaceOnUse">
			<stop  offset="0" style="stop-color:#77FFFF;stop-opacity:0"/>
			<stop  offset="0.1671" style="stop-color:#7AF4FE;stop-opacity:0.1671"/>
			<stop  offset="0.4564" style="stop-color:#83D8FD;stop-opacity:0.4564"/>
			<stop  offset="0.831" style="stop-color:#90ABFA;stop-opacity:0.831"/>
			<stop  offset="1" style="stop-color:#9794F9"/>
		</radialGradient>
		<path fill="url(#SVGID_7_)" d="M256.1,512c-27.8,0-55.7-6.2-80.5-17.8c-32.4-15.1-59.8-39-79.3-69.1
			C76.4,394.4,65.9,358.7,65.9,322c0-2,0-4.1,0.1-6.1c0.7-23.4,5.5-45.7,14.2-66.4c23.6-56.1,61.5-81.6,89.1-100.2
			c18.5-12.5,67.7-45.6,80.1-92.7c2-7.5,3.4-15.6,4.7-25.7c0.9-7.2,2.4-25.8,2.5-30.7c0,0,5.6,18.6,4.8,43.5
			c-0.7,22.2-5.5,56-24.5,90.7c-9.5,17.4-20.8,31.8-34.4,44c-2.7,2.4-5.4,4.7-8.1,7c-13.4,11.5-27.3,23.4-41,46.6
			c-28.5,48.3-31.5,99.2-8.4,139.7c16.7,29.3,45.3,47.4,74.5,47.4c0,0,0,0,0,0c15.3,0,29.8-4.7,43.3-14.1c8-5.5,16.8-8.9,23.1-8.9
			c4,0,6.9,1.4,8.4,3.9c2.6,4.5,0.7,12.2-5.5,23c-4.4,7.5-5.6,13.2-3.7,16.7c1.9,3.3,6.6,4,10.2,4c11,0,27.5-6.2,41.1-15.3
			c28.3-19.1,40.4-47.8,49.3-68.8c6.7-15.7,20.9-37.4,30.4-37.4c1.6,0,3,0.6,4.2,1.8c3.1,3.1,4.5,10.1,4.3,21.2
			c-0.3,18.8,1.8,19.5,1.9,19.5c1.1,0,4.3-5.4,8.5-20l0.2-0.7l0-0.2c3-12.2,4.5-24.9,4.3-37.7c-0.9-56.2-44-111.9-44-111.9
			c31.9,27.9,50.4,74,50.4,127.6c0,45-16.8,90.2-46.1,124c-28.1,32.4-66.5,54.7-108.2,62.7C280.1,510.9,268.1,512,256.1,512
			C256.1,512,256.1,512,256.1,512z"/>
		<linearGradient id="SVGID_8_" gradientUnits="userSpaceOnUse" x1="469.5683" y1="208.9795" x2="122.6564" y2="511.2488">
			<stop  offset="4.186700e-003" style="stop-color:#A200F9"/>
			<stop  offset="1" style="stop-color:#A200F9;stop-opacity:0"/>
		</linearGradient>
		<path opacity="0.2" fill="url(#SVGID_8_)" d="M74.2,375c5.1,17.8,12.8,34.9,22.9,50.6c19.2,29.7,46.8,53.8,78.9,68.8
			c35.9,16.8,76.8,21.8,115.7,14.3c41.7-8,79.9-30.3,107.7-62.4c29.3-33.9,45.8-78.4,45.8-123.4C407.4,524.3,154,536.1,74.2,375z"/>
	</g>
</g>
</svg>
